<svg xmlns="http://www.w3.org/2000/svg" width="201" height="65" viewBox="0 0 201 65" fill="none"><g clip-path="url(#clip0_1476_596)"><path d="M41.3698 38.7179C38.7504 38.7227 36.2264 39.7016 34.2887 41.4642C32.351 43.2268 31.1382 45.6471 30.886 48.2543C30.6338 50.8616 31.3603 53.4694 32.9242 55.5707C34.4882 57.672 36.7778 59.1165 39.3477 59.6233C41.9176 60.1301 44.5842 59.6629 46.8288 58.3127C49.0734 56.9624 50.7355 54.8256 51.492 52.3178C52.2485 49.81 52.0453 47.1105 50.9218 44.7442C49.7983 42.378 47.8349 40.5142 45.4134 39.5153C44.1309 38.9867 42.757 38.7157 41.3698 38.7179ZM41.3698 52.6745C40.6779 52.6782 40.0004 52.4761 39.4236 52.0938C38.8468 51.7116 38.3966 51.1664 38.1304 50.5277C37.8642 49.8889 37.794 49.1855 37.9286 48.5067C38.0632 47.8279 38.3966 47.2045 38.8864 46.7157C39.3762 46.2269 40.0003 45.8947 40.6793 45.7615C41.3584 45.6283 42.0617 45.7 42.6999 45.9675C43.3381 46.235 43.8823 46.6863 44.2634 47.2639C44.6445 47.8415 44.8453 48.5193 44.8401 49.2113C44.8389 50.1306 44.4726 51.0119 43.8219 51.6613C43.1711 52.3107 42.2892 52.6751 41.3698 52.6745Z" fill="#76689A"></path><path d="M25.9204 46.9726C25.8501 43.0367 27.271 39.2199 29.8978 36.2881L30.1338 36.0003L30.4711 35.6629C32.8639 32.9764 34.3634 29.6131 34.7624 26.0377C34.786 25.685 34.786 25.3311 34.7624 24.9784C34.786 24.6014 34.786 24.2232 34.7624 23.8461C34.6807 19.2407 32.7744 14.8561 29.4623 11.6553C26.1502 8.45442 21.703 6.69904 17.0976 6.77469C12.4922 6.85033 8.10507 8.75081 4.89985 12.0587C1.69464 15.3666 -0.066594 19.8115 0.00298801 24.417C-0.0088085 24.5535 -0.0088085 24.6909 0.00298801 24.8275C-0.00240226 23.1034 0.408744 21.4036 1.20145 19.8726C1.99415 18.3417 3.14495 17.0248 4.55593 16.0341C5.96692 15.0435 7.59633 14.4083 9.30553 14.1827C11.0147 13.9571 12.7532 14.1477 14.3729 14.7382C15.9926 15.3288 17.4457 16.302 18.6085 17.5748C19.7713 18.8476 20.6095 20.3825 21.0517 22.0489C21.4938 23.7153 21.5269 25.4638 21.1481 27.1457C20.7693 28.8276 19.9898 30.3931 18.876 31.709L18.4042 32.2446C16.1962 34.785 14.7368 37.8884 14.1884 41.2092C14.012 42.3073 13.933 43.4189 13.9525 44.5309C14.0399 49.3914 16.0546 54.0182 19.5532 57.3934C23.0518 60.7686 27.7479 62.6158 32.6085 62.5287C34.115 62.5076 35.613 62.2976 37.0672 61.9035C33.862 60.9307 31.052 58.9578 29.0485 56.2734C27.045 53.589 25.9529 50.334 25.9322 46.9844L25.9204 46.9726Z" fill="#76689A"></path><path d="M54.4815 29.1659H59.832C61.6112 29.1665 63.3583 29.6395 64.8947 30.5365C65.152 30.6795 65.4009 30.837 65.6402 31.0083L68.0512 32.622H65.954C64.2103 32.6226 62.5007 33.1051 61.014 34.0162C58.6816 35.4081 56.0157 36.1418 53.2996 36.1394C51.7048 36.1648 50.1168 35.9256 48.6002 35.4317C46.5025 34.7776 44.5736 33.6717 42.9493 32.1917C41.3251 30.7118 40.0449 28.8938 39.1991 26.8657C38.9632 26.3086 38.7623 25.7374 38.5975 25.1553C38.0523 23.1911 37.9079 21.1372 38.1729 19.116C38.438 17.0948 39.1071 15.1476 40.1404 13.3904V14.334C40.1504 18.2664 41.7184 22.0346 44.501 24.8132C47.2836 27.5918 51.054 29.1544 54.9864 29.1588" fill="#76689A"></path><path d="M58.7452 8.71225C56.0018 7.85129 53.1188 7.52455 50.2523 7.74973C48.2034 4.44234 45.2851 1.76152 41.8161 0C40.8438 4.0073 41.4932 8.23645 43.6232 11.7673C42.5099 13.7229 42.1811 16.0283 42.7031 18.2172C43.1461 19.7402 43.9768 21.1221 45.1142 22.2277C50.4647 27.5688 61.9843 28.5572 69.215 17.6085C67.0377 13.3761 63.2736 10.1777 58.7452 8.71225ZM61.1562 16.6035C60.3683 17.243 59.4465 17.6967 58.4591 17.9309C57.4718 18.1652 56.4444 18.1739 55.4532 17.9565C54.462 17.7392 53.5326 17.3013 52.7339 16.6754C51.9352 16.0494 51.2878 15.2516 50.8398 14.3411C50.783 14.2693 50.7523 14.1803 50.7525 14.0887C50.7526 13.9972 50.7833 13.9083 50.8398 13.8363C57.2283 9.43415 60.4815 14.7988 61.1798 16.1223C61.214 16.1959 61.2263 16.2778 61.2152 16.3582C61.202 16.4399 61.1642 16.5156 61.1067 16.5752L61.1562 16.6035ZM55.6123 13.6688C54.9431 13.6839 54.2853 13.8449 53.6849 14.1406C53.6444 14.1743 53.6115 14.2161 53.5882 14.2633C53.5669 14.3116 53.5556 14.3638 53.5551 14.4166C53.5543 14.4695 53.5655 14.5218 53.588 14.5697C53.6105 14.6175 53.6436 14.6596 53.6849 14.6926C54.074 15.1868 54.5627 15.5935 55.1192 15.8864C55.6756 16.1805 56.2869 16.3564 56.9145 16.403C57.5179 16.3912 58.1107 16.2428 58.6485 15.9689C58.6902 15.9355 58.7233 15.8926 58.7452 15.8439C58.7669 15.7961 58.7781 15.7442 58.7781 15.6917C58.7781 15.6392 58.7669 15.5874 58.7452 15.5396C58.7221 15.4916 58.6891 15.449 58.6485 15.4145C58.3036 14.9051 57.8461 14.4818 57.3114 14.1774C56.7768 13.8731 56.1792 13.6958 55.5651 13.6593L55.6123 13.6688Z" fill="#76689A"></path><path d="M61.5427 62.4225H51.3984C51.9441 61.5727 52.6945 60.8736 53.5807 60.3894C54.467 59.9052 55.4607 59.6515 56.4706 59.6515C57.4805 59.6515 58.4742 59.9052 59.3604 60.3894C60.2467 60.8736 60.9971 61.5727 61.5427 62.4225Z" fill="#76689A"></path><path d="M52.8914 38.0999C50.3623 38.0985 47.8635 37.5496 45.5667 36.4907C43.2699 35.4319 41.2296 33.8884 39.586 31.9662C39.0748 31.3626 38.6021 30.7275 38.1705 30.0647L31.7607 42.0962C33.0447 40.1215 34.8729 38.5607 37.0245 37.6023C39.1762 36.6439 41.5593 36.3289 43.8861 36.6954C46.2129 37.0618 48.3838 38.0941 50.1367 39.6674C51.8896 41.2408 53.1495 43.288 53.7643 45.5618V38.0692L52.8914 38.0999Z" fill="#76689A"></path><path d="M77.981 38.4302L78.0542 56.5247L68.3652 64.876V44.0355L77.981 38.4302Z" fill="#76689A"></path><path d="M71.5216 32.7517L73.4089 34.0752H65.8597C64.3896 34.0883 62.95 34.4956 61.6911 35.2547C61.2369 35.5361 60.764 35.786 60.2756 36.0026L58.6855 37.2765L67.0958 41.9452L78.054 35.9766L71.5216 32.7517Z" fill="#76689A"></path><path d="M56.459 38.4065V56.501C58.0218 56.4988 59.5554 56.9238 60.8941 57.7301C62.3296 58.4885 63.5408 59.6102 64.4069 60.9833L66.5301 64.2555V43.7617L56.459 38.4065Z" fill="#76689A"></path><path d="M91.2188 11.9844H98.6146C100.485 11.9844 101.939 12.4798 102.979 13.4706C104.019 14.4615 104.545 15.7904 104.56 17.4576C104.56 19.1262 104.033 20.4552 102.979 21.4445C101.925 22.4337 100.47 22.9213 98.6146 22.9071H94.4154V28.7814H91.2305L91.2188 11.9844ZM94.4036 20.1705H98.4613C99.3876 20.1705 100.095 19.9425 100.584 19.4864C101.074 19.0303 101.325 18.354 101.339 17.4576C101.339 16.5768 101.088 15.9005 100.584 15.4287C100.081 14.9569 99.3735 14.721 98.4613 14.721H94.4036V20.1705ZM114.395 23.4261V16.6083H117.367V28.7814H114.489V27.012C114.085 27.6563 113.52 28.1843 112.85 28.5442C112.18 28.904 111.428 29.0833 110.667 29.0645C109.36 29.0645 108.322 28.687 107.553 27.9321C106.784 27.1772 106.407 26.092 106.421 24.6765V16.6083H109.393V24.1811C109.393 25.7208 110.156 26.4914 111.682 26.493C112.039 26.5001 112.393 26.4323 112.722 26.2942C113.051 26.1561 113.348 25.9506 113.593 25.6909C114.126 25.142 114.393 24.3871 114.395 23.4261ZM126.294 16.4195C126.539 16.4185 126.783 16.4343 127.026 16.4667V19.2033H126.271C125.138 19.2033 124.265 19.4943 123.652 20.0762C123.039 20.6581 122.74 21.4995 122.756 22.6004V28.7814H119.783V16.6083H122.661V18.7787C123.336 17.2059 124.547 16.4195 126.294 16.4195ZM135.377 16.3252C137.042 16.3252 138.371 16.8992 139.364 18.0473C140.356 19.1954 140.844 20.7446 140.826 22.6948C140.826 24.612 140.339 26.1533 139.364 27.3187C138.389 28.4841 137.06 29.066 135.377 29.0645C133.726 29.0645 132.467 28.4432 131.602 27.2007V33.4052H128.63V16.6083H131.484V18.354C132.365 17.003 133.663 16.3267 135.377 16.3252ZM132.381 25.5965C132.914 26.2744 133.677 26.6125 134.669 26.611C135.111 26.6289 135.551 26.5421 135.953 26.3576C136.354 26.1731 136.707 25.8961 136.981 25.5494C137.532 24.8573 137.807 23.8744 137.807 22.6004C137.807 21.3564 137.532 20.4127 136.981 19.7695C136.431 19.1262 135.66 18.796 134.669 18.7787C133.678 18.7787 132.908 19.1168 132.357 19.7931C131.807 20.4694 131.532 21.4366 131.532 22.6948C131.532 23.9687 131.815 24.936 132.381 25.5965ZM145.656 28.7814H142.683V11.9844H145.656V28.7814ZM159.539 22.9071V23.6149H150.433C150.545 24.6529 150.867 25.4393 151.4 25.974C152.001 26.5118 152.789 26.7915 153.594 26.7525C154.947 26.7525 155.875 26.1706 156.378 25.0068H159.244C158.962 26.2032 158.258 27.2582 157.263 27.9793C156.183 28.7252 154.894 29.1056 153.582 29.0645C151.772 29.0645 150.309 28.4825 149.194 27.3187C148.079 26.1549 147.521 24.6136 147.519 22.6948C147.519 20.7776 148.07 19.2363 149.171 18.0709C150.272 16.9055 151.726 16.3236 153.535 16.3252C155.375 16.3252 156.838 16.9307 157.923 18.1417C159.008 19.3527 159.547 20.9412 159.539 22.9071ZM153.5 18.6371C151.754 18.6371 150.74 19.6044 150.456 21.5388H156.567C156.487 20.7391 156.138 19.9903 155.576 19.4156C155.299 19.1541 154.973 18.9505 154.616 18.8168C154.26 18.6831 153.88 18.622 153.5 18.6371Z" fill="#422A54"></path><path d="M172.242 19.9346C173.109 20.2174 173.862 20.7716 174.389 21.5153C174.905 22.2285 175.178 23.0886 175.167 23.9687C175.167 25.4943 174.664 26.6817 173.658 27.531C172.651 28.3803 171.204 28.7971 169.317 28.7814H161.461V11.9844H169.057C170.82 11.9844 172.165 12.3854 173.091 13.1875C173.545 13.5719 173.906 14.0537 174.147 14.597C174.388 15.1403 174.503 15.7311 174.483 16.3252C174.483 17.9766 173.736 19.1797 172.242 19.9346ZM168.821 14.603H164.646V18.991H168.821C169.624 18.991 170.237 18.7944 170.662 18.4012C170.885 18.1855 171.06 17.9244 171.174 17.6354C171.288 17.3465 171.338 17.0364 171.322 16.7262C171.337 16.4337 171.285 16.1416 171.171 15.8719C171.056 15.6022 170.882 15.362 170.662 15.1692C170.223 14.7917 169.609 14.603 168.821 14.603ZM164.646 26.1391H169.152C170.048 26.1391 170.732 25.9425 171.204 25.5494C171.443 25.3334 171.631 25.0666 171.753 24.7686C171.876 24.4706 171.93 24.1489 171.912 23.8272C171.912 22.2702 170.992 21.4917 169.152 21.4917H164.646V26.1391ZM188.968 22.6948C188.968 24.612 188.402 26.1533 187.27 27.3187C186.137 28.4841 184.643 29.066 182.787 29.0645C180.933 29.0645 179.439 28.4825 178.305 27.3187C177.171 26.1549 176.597 24.6136 176.583 22.6948C176.583 20.7603 177.157 19.219 178.305 18.0709C179.453 16.9228 180.947 16.3409 182.787 16.3252C184.645 16.3252 186.139 16.8992 187.27 18.0473C188.401 19.1954 188.967 20.7446 188.968 22.6948ZM180.45 25.5965C180.735 25.9333 181.094 26.1999 181.499 26.3758C181.904 26.5517 182.344 26.6322 182.785 26.611C183.776 26.611 184.547 26.2728 185.097 25.5965C185.647 24.9203 185.931 23.953 185.946 22.6948C185.946 21.4523 185.663 20.493 185.097 19.8167C184.821 19.4733 184.468 19.2003 184.066 19.0199C183.664 18.8394 183.225 18.7568 182.785 18.7787C182.344 18.7575 181.904 18.8379 181.499 19.0138C181.094 19.1897 180.735 19.4563 180.45 19.7931C179.899 20.4709 179.624 21.4382 179.624 22.6948C179.624 23.9514 179.899 24.9187 180.45 25.5965ZM200.764 16.6083L196.473 22.5297L201 28.7814H197.603L197.155 28.1444C196.384 27.012 195.959 26.3908 195.881 26.2807C195.267 25.4149 194.904 24.8888 194.795 24.7001C193.677 26.3216 192.883 27.4697 192.413 28.1444L191.964 28.7814H188.638L193.168 22.5533L188.874 16.6083H192.271L192.908 17.5047C193.74 18.6843 194.393 19.6437 194.866 20.3829C195.635 19.2206 196.28 18.2612 196.801 17.5047L197.438 16.6083H200.764Z" fill="#76689A"></path><path d="M97.0243 53.1983C94.9797 53.1983 93.3881 52.7367 92.2494 51.8134C91.1107 50.8902 90.5312 49.5109 90.5107 47.6755H92.424C92.468 50.2423 94.0015 51.5256 97.0243 51.5256C98.3014 51.5256 99.2765 51.2763 99.9496 50.7778C100.623 50.2792 100.968 49.5534 100.985 48.6003C101 48.2616 100.93 47.9246 100.779 47.6206C100.629 47.3166 100.405 47.0555 100.127 46.8616C99.5698 46.4354 98.5868 46.0682 97.1776 45.7599L95.7905 45.4532C94.2083 45.0852 93.0201 44.5568 92.2258 43.8679C91.4316 43.179 91.0384 42.1961 91.0463 40.919C91.0258 40.3443 91.1457 39.7732 91.3957 39.2553C91.6456 38.7373 92.018 38.2881 92.4806 37.9465C93.4494 37.1979 94.7477 36.8236 96.3755 36.8236C97.3443 36.8045 98.31 36.9383 99.2372 37.2199C99.8983 37.4034 100.507 37.7402 101.014 38.2029C101.52 38.6657 101.911 39.2414 102.153 39.8833C102.38 40.4729 102.499 41.0987 102.505 41.7305H100.617C100.529 40.617 100.163 39.8031 99.5179 39.2888C98.8731 38.7745 97.8311 38.5103 96.3921 38.4962C95.2911 38.4962 94.4403 38.7093 93.8395 39.1355C93.5553 39.3349 93.3258 39.6025 93.172 39.9137C93.0183 40.2249 92.9452 40.5698 92.9595 40.9166C92.942 41.2533 93.0024 41.5894 93.1363 41.8988C93.2701 42.2082 93.4736 42.4824 93.7309 42.7001C94.2279 43.1248 95.196 43.4991 96.635 43.8231L98.0222 44.1298C99.7522 44.5119 100.999 45.0624 101.761 45.7812C102.524 46.4999 102.906 47.4388 102.906 48.598C102.906 50.0134 102.385 51.1356 101.344 51.9644C100.303 52.7933 98.8628 53.2045 97.0243 53.1983ZM109.528 41.4923V43.0328H107.194V50.405C107.194 51.0491 107.629 51.3723 108.492 51.3723H109.528V52.8467C109.056 52.8916 108.624 52.9128 108.273 52.9128C106.385 52.9128 105.442 52.1264 105.442 50.5537V43.0304H103.569V41.4899H105.439V38.2768H107.199V41.4899L109.528 41.4923ZM120.082 51.4808C119.028 52.5236 117.605 53.1084 116.121 53.1084C114.638 53.1084 113.215 52.5236 112.16 51.4808C111.133 50.4098 110.62 48.9715 110.62 47.166C110.62 45.3604 111.133 43.923 112.16 42.8535C113.215 41.8107 114.638 41.2259 116.121 41.2259C117.605 41.2259 119.028 41.8107 120.082 42.8535C121.111 43.9245 121.624 45.362 121.623 47.166C121.621 48.9699 121.108 50.4082 120.082 51.4808ZM113.477 50.3673C113.816 50.7348 114.228 51.028 114.686 51.2286C115.144 51.4291 115.639 51.5327 116.139 51.5327C116.639 51.5327 117.134 51.4291 117.592 51.2286C118.05 51.028 118.462 50.7348 118.801 50.3673C119.462 49.6045 119.792 48.5405 119.792 47.1754C119.792 45.8102 119.462 44.74 118.801 43.9646C118.459 43.6024 118.046 43.3139 117.589 43.1168C117.131 42.9196 116.638 42.8179 116.139 42.8179C115.641 42.8179 115.148 42.9196 114.69 43.1168C114.232 43.3139 113.819 43.6024 113.477 43.9646C112.816 44.7258 112.486 45.7961 112.486 47.1754C112.486 48.5547 112.816 49.6187 113.477 50.3673ZM129.047 41.313C129.245 41.309 129.444 41.3161 129.642 41.3342V43.0304H129.2C128.029 43.0304 127.112 43.3237 126.45 43.9104C125.803 44.4813 125.482 45.3046 125.482 46.3733V52.8444H123.72V41.4899H125.393V43.4928C126.162 42.0396 127.38 41.313 129.047 41.313ZM139.798 51.4148H140.437V52.8444C140.116 52.8907 139.792 52.9128 139.467 52.9104C138.28 52.9104 137.642 52.3678 137.554 51.2826C136.768 52.5 135.535 53.1086 133.857 53.1086C132.61 53.1086 131.627 52.8224 130.908 52.2499C130.19 51.6774 129.837 50.8556 129.852 49.7846C129.852 47.74 131.253 46.5667 134.056 46.2648L135.683 46.0878C136.872 45.9557 137.467 45.4352 137.467 44.5261C137.467 43.897 137.269 43.4425 136.872 43.1625C136.476 42.8826 135.823 42.7426 134.914 42.7426C133.931 42.7426 133.224 42.9117 132.791 43.2498C132.364 43.573 132.123 44.151 132.064 44.9885H130.305C130.451 42.4815 131.991 41.2233 134.926 41.2139C137.771 41.2139 139.194 42.3148 139.194 44.5167V50.8627C139.192 51.2307 139.396 51.4148 139.805 51.4148H139.798ZM133.945 51.6129C134.842 51.6265 135.715 51.3224 136.41 50.7542C137.118 50.1951 137.467 49.3977 137.467 48.355V47.0126C137.02 47.3048 136.502 47.4718 135.969 47.4962L134.317 47.6944C133.363 47.8124 132.68 48.0325 132.27 48.355C132.07 48.5241 131.912 48.7376 131.809 48.9783C131.705 49.2191 131.66 49.4806 131.675 49.7421C131.662 50.001 131.707 50.2595 131.806 50.499C131.905 50.7385 132.056 50.9529 132.248 51.1269C132.631 51.4509 133.198 51.6129 133.952 51.6129H133.945ZM150.4 43.1389V41.4875H152.072V52.4009C152.072 53.9579 151.617 55.1831 150.706 56.0764C149.796 56.9697 148.49 57.4172 146.79 57.4187C145.375 57.4187 144.245 57.0963 143.402 56.4515C142.982 56.1338 142.635 55.7298 142.385 55.2667C142.134 54.8036 141.985 54.2921 141.949 53.7668H143.709C143.929 55.2043 144.956 55.923 146.79 55.923C149.138 55.923 150.312 54.749 150.312 52.4009V51.311C149.416 52.5141 148.147 53.1157 146.505 53.1157C144.905 53.1157 143.629 52.5731 142.676 51.4879C141.723 50.4027 141.238 48.9644 141.223 47.173C141.223 45.3549 141.707 43.9104 142.676 42.8393C143.619 41.7683 144.896 41.2328 146.505 41.2328C148.195 41.2281 149.496 41.8634 150.407 43.1389H150.4ZM146.741 51.5233C147.242 51.5448 147.741 51.4518 148.201 51.2516C148.661 51.0513 149.069 50.7489 149.395 50.3673C150.055 49.5809 150.385 48.517 150.385 47.1754C150.385 45.8338 150.055 44.7707 149.395 43.9859C149.056 43.6162 148.643 43.3213 148.184 43.1203C147.724 42.9193 147.228 42.8165 146.726 42.8185C146.225 42.8205 145.729 42.9272 145.271 43.1319C144.814 43.3366 144.404 43.6347 144.068 44.0071C143.41 44.7935 143.081 45.8496 143.079 47.1754C143.078 48.5012 143.407 49.5581 144.068 50.3461C144.395 50.7323 144.805 51.039 145.268 51.243C145.731 51.447 146.235 51.5428 146.741 51.5233ZM164.63 47.166V47.7723H155.993C156.081 49.0069 156.426 49.9387 157.029 50.5678C157.631 51.1969 158.452 51.5052 159.492 51.4926C161.064 51.4926 162.069 50.7849 162.507 49.3694H164.335C164.073 50.441 163.47 51.3986 162.617 52.0989C161.781 52.7595 160.725 53.0897 159.449 53.0897C157.876 53.0897 156.607 52.5542 155.642 51.4832C154.676 50.4121 154.184 48.9668 154.167 47.1471C154.167 45.3589 154.651 43.9214 155.62 42.8346C156.589 41.7478 157.847 41.2052 159.395 41.2068C161.023 41.2068 162.299 41.7714 163.224 42.9007C164.149 44.0299 164.614 45.4517 164.62 47.166H164.63ZM159.414 42.8322C158.996 42.8166 158.579 42.8866 158.189 43.0379C157.799 43.1892 157.445 43.4187 157.147 43.7122C156.558 44.2831 156.192 45.112 156.047 46.1987H162.738C162.69 45.2988 162.332 44.4432 161.723 43.7783C161.428 43.4627 161.068 43.2148 160.667 43.0515C160.267 42.8882 159.836 42.8134 159.404 42.8322H159.414Z" fill="#1D1F33"></path><path d="M166.062 42.2401H166.435V43.2121H166.607V42.2401H166.979V42.0891H166.062V42.2401ZM168.088 42.0891L167.867 42.6695C167.824 42.7874 167.784 42.9054 167.751 43.0045C167.72 42.9172 167.683 42.811 167.635 42.686L167.399 42.0891H167.164V43.2121H167.326V42.8606C167.326 42.6089 167.326 42.4202 167.326 42.2944L167.421 42.5515L167.678 43.2121H167.819L168.074 42.5515C168.114 42.4453 168.145 42.3581 168.168 42.2896C168.168 42.417 168.168 42.6058 168.168 42.8606V43.2121H168.331V42.0891H168.088ZM167.194 40.9308C166.855 40.9308 166.524 41.0312 166.243 41.2194C165.961 41.4076 165.741 41.6751 165.612 41.9881C165.482 42.301 165.448 42.6454 165.514 42.9776C165.58 43.3099 165.744 43.6151 165.983 43.8546C166.223 44.0941 166.528 44.2572 166.86 44.3233C167.192 44.3894 167.537 44.3555 167.85 44.2259C168.163 44.0962 168.43 43.8767 168.618 43.5951C168.806 43.3134 168.907 42.9823 168.907 42.6435C168.907 42.1893 168.726 41.7536 168.405 41.4324C168.084 41.1112 167.648 40.9308 167.194 40.9308ZM167.194 44.2336C166.881 44.234 166.575 44.1415 166.314 43.9678C166.053 43.794 165.85 43.5468 165.73 43.2575C165.61 42.9681 165.578 42.6496 165.639 42.3423C165.7 42.0351 165.851 41.7528 166.072 41.5313C166.294 41.3097 166.576 41.1589 166.884 41.0979C167.191 41.0369 167.509 41.0685 167.799 41.1886C168.088 41.3087 168.335 41.5119 168.509 41.7726C168.683 42.0333 168.775 42.3397 168.775 42.6529C168.774 43.0718 168.607 43.4731 168.31 43.7692C168.014 44.0654 167.613 44.2323 167.194 44.2336Z" fill="black"></path></g><defs><clipPath id="clip0_1476_596"><rect width="201" height="64.876" fill="white"></rect></clipPath></defs></svg>